<?xml version="1.0" encoding="iso-8859-1"?>
<!-- Generator: Adobe Illustrator 19.0.0, SVG Export Plug-In . SVG Version: 6.00 Build 0)  -->
<svg version="1.1" id="Layer_1" xmlns="http://www.w3.org/2000/svg" xmlns:xlink="http://www.w3.org/1999/xlink" x="0px" y="0px"
	 viewBox="0 0 415.335 415.335" style="enable-background:new 0 0 415.335 415.335;" xml:space="preserve">
<g>
	<g>
		<g>
			<path d="M410.347,91.268c-3.015-1.226-6.473-0.502-8.744,1.83L107.782,394.815c-2.244,2.304-2.89,5.729-1.639,8.691
				c1.25,2.964,4.154,4.89,7.371,4.89h293.821c4.418,0,8-3.582,8-8V98.679C415.334,95.424,413.362,92.493,410.347,91.268z
				 M132.471,392.396l266.863-274.035l0,274.035H132.471z"/>
			<path d="M360.347,214.279c-3.016-1.227-6.473-0.502-8.744,1.83L226.265,344.815c-2.244,2.303-2.89,5.728-1.639,8.691
				c1.25,2.964,4.154,4.89,7.371,4.89h125.338c4.418,0,8-3.582,8-8V221.69C365.335,218.435,363.363,215.504,360.347,214.279z
				 M349.334,342.395h-98.38l98.38-101.024V342.395z"/>
			<path d="M4.938,244.074c0.99,0.41,2.029,0.609,3.06,0.609c2.082,0,4.128-0.813,5.659-2.343L219.506,36.49
				c2.288-2.288,2.973-5.729,1.734-8.719s-4.155-4.938-7.391-4.938H8c-4.418,0-8,3.582-8,8v205.85
				C0,239.919,1.949,242.836,4.938,244.074z M16,38.834h178.536l-19.189,19.189l-8.583-8.583c-3.124-3.123-8.189-3.123-11.313,0
				c-3.125,3.125-3.125,8.189,0,11.314l8.582,8.582L144.43,88.94l-8.583-8.582c-3.124-3.123-8.19-3.124-11.314,0.001
				c-3.124,3.124-3.124,8.189,0,11.313l8.582,8.582l-19.603,19.603l-8.583-8.583c-3.124-3.123-8.189-3.123-11.313,0
				c-3.125,3.125-3.125,8.189,0,11.314l8.582,8.582l-19.603,19.603l-8.583-8.582c-3.124-3.123-8.189-3.123-11.313,0
				c-3.125,3.125-3.125,8.19,0,11.314l8.582,8.582l-19.6,19.603l-8.583-8.583c-3.123-3.122-8.188-3.123-11.313,0
				c-3.124,3.124-3.125,8.189,0,11.314l8.582,8.583L16,217.37V38.834z"/>
			<path d="M53,136.044c4.418,0,8-3.582,8-8v-44.21h44.21c4.418,0,8-3.582,8-8c0-4.418-3.582-8-8-8H53c-4.418,0-8,3.582-8,8v52.21
				C45,132.462,48.581,136.044,53,136.044z"/>
			<path d="M374.079,63.76c0-8.035-3.129-15.589-8.811-21.271l-26.74-26.74c-5.682-5.682-13.236-8.81-21.271-8.81
				c-8.035,0-15.589,3.128-21.271,8.81L25.547,286.187c-0.976,0.976-1.7,2.204-2.07,3.583L2.222,368.994
				c-0.741,2.762,0.048,5.708,2.07,7.73c1.52,1.52,3.563,2.343,5.657,2.343c0.691,0,1.388-0.09,2.072-0.273l79.224-21.255
				c1.379-0.37,2.608-1.094,3.584-2.069L365.268,85.031C370.949,79.35,374.079,71.795,374.079,63.76z M278.536,55.825l17.671,17.671
				L60.188,309.514l-17.671-17.67L278.536,55.825z M21.268,359.747l14.073-52.452l19.19,19.19l19.19,19.189L21.268,359.747z
				 M89.173,338.499l-17.671-17.671L307.52,84.81l17.67,17.67L89.173,338.499z M353.954,73.717l-17.449,17.45l-23.327-23.328
				L289.85,44.512l17.449-17.449c2.66-2.66,6.196-4.124,9.958-4.124c3.762,0,7.298,1.464,9.958,4.124l26.74,26.739
				c2.66,2.66,4.125,6.197,4.125,9.958C358.079,67.522,356.614,71.058,353.954,73.717z"/>
		</g>
	</g>
</g>
<g>
</g>
<g>
</g>
<g>
</g>
<g>
</g>
<g>
</g>
<g>
</g>
<g>
</g>
<g>
</g>
<g>
</g>
<g>
</g>
<g>
</g>
<g>
</g>
<g>
</g>
<g>
</g>
<g>
</g>
</svg>
